<svg width="57" height="58" viewBox="0 0 57 58" fill="none" xmlns="http://www.w3.org/2000/svg">
<path d="M28.3333 44.5834C31.5444 44.5834 34.4604 43.6744 37.0812 41.8563C39.7021 40.0383 41.6028 37.6417 42.7833 34.6667H13.8833C15.0639 37.6417 16.9646 40.0383 19.5854 41.8563C22.2062 43.6744 25.1222 44.5834 28.3333 44.5834ZM16.4333 26.1667L19.55 23.1917L22.525 26.1667L25.5 23.1917L19.55 17.1001L13.4583 23.1917L16.4333 26.1667ZM34.1417 26.1667L37.1167 23.1917L40.2333 26.1667L43.2083 23.1917L37.1167 17.1001L31.1667 23.1917L34.1417 26.1667ZM28.3333 57.3334C24.4139 57.3334 20.7306 56.5897 17.2833 55.1022C13.8361 53.6147 10.8375 51.5959 8.2875 49.0459C5.7375 46.4959 3.71875 43.4973 2.23125 40.0501C0.74375 36.6029 0 32.9195 0 29.0001C0 25.0806 0.74375 21.3973 2.23125 17.9501C3.71875 14.5029 5.7375 11.5042 8.2875 8.95425C10.8375 6.40425 13.8361 4.3855 17.2833 2.898C20.7306 1.4105 24.4139 0.666748 28.3333 0.666748C32.2528 0.666748 35.9361 1.4105 39.3833 2.898C42.8306 4.3855 45.8292 6.40425 48.3792 8.95425C50.9292 11.5042 52.9479 14.5029 54.4354 17.9501C55.9229 21.3973 56.6667 25.0806 56.6667 29.0001C56.6667 32.9195 55.9229 36.6029 54.4354 40.0501C52.9479 43.4973 50.9292 46.4959 48.3792 49.0459C45.8292 51.5959 42.8306 53.6147 39.3833 55.1022C35.9361 56.5897 32.2528 57.3334 28.3333 57.3334Z" fill="white"/>
</svg>
