<svg width="174" height="55" viewBox="0 0 174 55" fill="none" xmlns="http://www.w3.org/2000/svg">
<g clip-path="url(#clip0_102_279)">
<path d="M54.9645 27.5L37.2393 23.432L46.9963 7.97337L31.5477 17.7367L27.4822 0L23.4168 17.7367L7.96823 7.97337L17.7252 23.432L0 27.5L17.7252 31.568L7.96823 47.0266L23.4168 37.2633L27.4822 55L31.5477 37.2633L46.9963 47.0266L37.2393 31.568L54.9645 27.5ZM39.1907 39.216L29.9215 33.358L27.4822 44.0976L25.043 33.358L15.7738 39.216L21.628 29.9408L10.8953 27.5L21.628 25.0592L15.7738 15.784L25.043 21.642L27.4822 10.9024L29.9215 21.642L39.1907 15.784L33.3365 25.0592L44.0692 27.5L33.3365 29.9408L39.1907 39.216Z" fill="white"/>
<path d="M74.8038 8.13623V12.2043H71.3888V36.2871H67.486V12.2043H64.071V8.13623H74.8038Z" fill="white"/>
<path d="M81.6337 6.83447C88.301 7.97353 92.0411 13.9942 92.0411 19.6895C92.0411 24.083 89.7645 28.6392 85.5365 31.4055V36.4499H81.6337V6.83447ZM85.6991 26.0357C87.1626 24.5712 88.301 22.4558 88.301 19.5268C88.301 17.2487 87.6505 14.9706 85.6991 13.1806V26.0357Z" fill="white"/>
<path d="M102.286 8.13625V16.9232L109.441 6.83447V36.2871H105.538V18.8759L102.449 23.4321V36.2871H98.5458V8.13625H102.286Z" fill="white"/>
<path d="M121.8 16.5978C121.8 18.8759 122.125 21.4794 124.077 24.2457C124.89 21.6421 125.215 19.0386 125.215 16.7605V8.13623H129.118V16.5978C129.118 18.3877 128.955 27.9883 122.613 36.2871H117.247C118.71 34.8226 120.824 32.2191 122.45 28.6392C118.222 23.5948 117.897 19.0386 117.897 16.1096V8.13623H121.8V16.5978Z" fill="white"/>
<path d="M150.908 36.2871H147.006V23.4321L143.753 30.5919L140.501 23.4321V36.2871H136.598V6.83447L143.753 22.1303L150.908 6.83447V36.2871Z" fill="white"/>
<path d="M167.333 8.13623V11.2279C171.398 13.0179 174 17.2487 174 21.8049C174 26.1984 171.561 30.5919 167.333 32.3818V36.4498H163.43V32.3818C159.365 30.5919 156.763 26.1984 156.763 21.8049C156.763 17.2487 159.202 13.0179 163.43 11.2279V8.13623H167.333ZM163.43 15.9469C161.641 17.4114 160.828 19.5268 160.828 21.6421C160.828 23.7575 161.641 25.8729 163.43 27.3374V15.9469ZM167.333 27.5001C169.122 26.0356 169.935 23.7575 169.935 21.8049C169.935 19.6895 169.122 17.5741 167.333 16.1096V27.5001Z" fill="white"/>
<path d="M67.486 45.3995V40.1924H71.714V45.3995H71.0635V40.6805H68.1364V45.3995H67.486Z" fill="white"/>
<path d="M73.3401 40.1924H73.9906V40.6805C74.3158 40.5178 74.8037 40.1924 75.4541 40.1924C77.0803 40.1924 77.7308 41.1687 77.7308 42.7959C77.7308 44.4232 77.0803 45.3995 75.4541 45.3995C74.8037 45.3995 74.1532 45.074 73.828 44.9113V47.3521H73.1775V40.1924H73.3401ZM73.9906 41.006V44.5859C74.3158 44.7486 74.8037 45.074 75.4541 45.074C76.2672 45.074 77.0803 44.7486 77.0803 42.7959C77.0803 41.006 76.1046 40.5178 75.2915 40.5178C74.8037 40.6805 74.3158 40.8433 73.9906 41.006Z" fill="white"/>
<path d="M78.8691 42.3078C78.8691 41.006 79.6822 40.1924 81.1458 40.1924C82.6093 40.1924 83.585 41.006 83.585 42.3078V43.4468C83.585 44.7486 82.7719 45.5622 81.1458 45.5622C79.6822 45.5622 78.8691 44.7486 78.8691 43.4468V42.3078ZM79.5196 43.4468C79.5196 44.4232 80.1701 45.074 81.1458 45.074C82.2841 45.074 82.7719 44.4232 82.7719 43.4468V42.3078C82.7719 41.3314 82.1215 40.6805 81.1458 40.6805C80.1701 40.6805 79.5196 41.3314 79.5196 42.3078V43.4468Z" fill="white"/>
<path d="M88.6261 40.1924V44.9113H89.2766V47.0267H88.7888V45.3995H84.5607V47.0267H84.0729V44.9113H84.5607C85.5364 43.935 85.5364 41.6569 85.5364 40.1924H88.6261ZM86.0243 40.6805C86.0243 41.9823 86.0243 43.6095 85.2112 44.9113H88.1383V40.6805H86.0243Z" fill="white"/>
<path d="M91.3906 42.9587V45.3995H90.7401V40.1924H91.3906V42.4705H92.6915V42.145C92.6915 40.8433 93.6672 40.1924 94.9682 40.1924C96.4317 40.1924 97.4074 41.006 97.4074 42.3078V43.4468C97.4074 44.7486 96.4317 45.5622 94.9682 45.5622C93.5046 45.5622 92.6915 44.7486 92.6915 43.2841V42.9587H91.3906ZM93.342 43.4468C93.342 44.4232 93.9925 45.074 94.9682 45.074C95.9439 45.074 96.5943 44.4232 96.5943 43.4468V42.3078C96.5943 41.3314 95.9439 40.6805 94.9682 40.6805C93.9925 40.6805 93.342 41.3314 93.342 42.3078V43.4468Z" fill="white"/>
<path d="M102.449 45.074C101.961 45.2368 101.473 45.5622 100.822 45.5622C99.3589 45.5622 98.5458 44.7486 98.5458 43.2841V42.4705C98.5458 41.006 99.3589 40.1924 100.822 40.1924C101.473 40.1924 102.123 40.3551 102.611 40.5178L102.449 41.006C101.961 40.8433 101.473 40.5178 100.985 40.5178C99.8467 40.5178 99.1962 41.1687 99.1962 42.3078V43.1214C99.1962 44.2604 99.8467 44.9113 100.985 44.9113C101.473 44.9113 101.961 44.7486 102.449 44.4231V45.074Z" fill="white"/>
<path d="M107.652 45.074C107.002 45.3995 106.351 45.5622 105.701 45.5622C104.237 45.5622 103.262 45.074 103.262 43.6095V42.4705C103.262 41.1687 103.912 40.1924 105.376 40.1924C106.839 40.1924 107.49 40.8433 107.49 42.3078V43.1214H104.075V43.6095C104.075 44.7486 104.725 45.074 105.864 45.074C106.351 45.074 107.002 44.9113 107.652 44.5859V45.074ZM104.075 42.6332H107.165V42.145C107.165 41.1687 106.677 40.6805 105.538 40.6805C104.563 40.6805 104.075 41.3314 104.075 42.4705V42.6332Z" fill="white"/>
<path d="M109.116 40.1924H109.766V40.6805C110.092 40.5178 110.579 40.1924 111.23 40.1924C112.856 40.1924 113.507 41.1687 113.507 42.7959C113.507 44.4232 112.856 45.3995 111.23 45.3995C110.579 45.3995 109.929 45.074 109.604 44.9113V47.3521H108.953V40.1924H109.116ZM109.766 41.006V44.5859C110.092 44.7486 110.579 45.074 111.23 45.074C112.043 45.074 112.856 44.7486 112.856 42.7959C112.856 41.006 111.88 40.5178 111.067 40.5178C110.579 40.6805 110.092 40.8433 109.766 41.006Z" fill="white"/>
<path d="M118.71 45.0742C118.222 45.2369 117.572 45.3996 117.084 45.3996C115.621 45.3996 114.807 44.586 114.807 43.1215V42.3079C114.807 40.8434 115.621 40.0298 117.084 40.0298C117.735 40.0298 118.385 40.1925 118.71 40.3552L118.548 40.8434C118.06 40.6807 117.572 40.3552 117.084 40.3552C115.946 40.3552 115.295 41.0061 115.295 42.1452V42.9588C115.295 44.0978 115.946 44.7487 117.084 44.7487C117.572 44.7487 118.06 44.586 118.548 44.2606L118.71 45.0742Z" fill="white"/>
<path d="M120.499 42.6336L123.101 40.3555H124.077L121.15 42.7963L124.077 45.5626H123.264L120.662 42.959V45.5626H120.011V40.3555H120.662V42.6336H120.499Z" fill="white"/>
<path d="M125.703 40.1924V44.4231L128.955 40.1924H129.606V45.3995H128.955V41.1687L125.703 45.3995H125.052V40.1924H125.703Z" fill="white"/>
<path d="M131.72 40.1925V44.4233L134.972 40.1925H135.622V45.3996H134.972V41.1689L131.72 45.3996H131.069V40.1925H131.72ZM131.882 38.0771V38.2399C131.882 38.4026 131.882 38.8908 133.183 38.8908C134.321 38.8908 134.484 38.4026 134.484 38.0771H135.135V38.2399C135.135 39.2162 133.996 39.3789 133.183 39.3789C132.207 39.3789 131.232 39.2162 131.232 38.2399V38.0771H131.882Z" fill="white"/>
<path d="M141.151 40.1924V44.9113H144.079V40.1924H144.729V44.9113H145.379V47.0267H144.729V45.3995H140.664V40.1924H141.151Z" fill="white"/>
<path d="M150.583 45.0742C149.933 45.2369 149.282 45.3996 148.632 45.3996C147.168 45.3996 146.193 44.9114 146.193 43.4469V42.3079C146.193 41.0061 146.843 40.0298 148.307 40.0298C149.77 40.0298 150.421 40.6807 150.421 42.1452V42.9588H146.68V43.4469C146.68 44.586 147.331 44.9114 148.469 44.9114C148.957 44.9114 149.607 44.7487 150.258 44.4233L150.583 45.0742ZM147.006 42.6333H150.095V42.1452C150.095 41.1688 149.607 40.6807 148.469 40.6807C147.493 40.6807 147.006 41.3316 147.006 42.4706V42.6333Z" fill="white"/>
<path d="M156.437 40.1924V45.3995H155.787V42.9587H152.697V45.3995H152.047V40.1924H152.697V42.3078H155.787V40.1924H156.437Z" fill="white"/>
<path d="M157.413 40.1924H161.641V40.6805H159.852V45.3995H159.364V40.6805H157.576V40.1924H157.413Z" fill="white"/>
<path d="M162.779 40.1924H163.43V40.6805C163.755 40.5178 164.243 40.1924 164.893 40.1924C166.52 40.1924 167.17 41.1687 167.17 42.7959C167.17 44.4232 166.52 45.3995 164.893 45.3995C164.243 45.3995 163.593 45.074 163.267 44.9113V47.3521H162.617V40.1924H162.779ZM163.43 41.006V44.5859C163.755 44.7486 164.243 45.074 164.893 45.074C165.707 45.074 166.52 44.7486 166.52 42.7959C166.52 41.006 165.544 40.5178 164.731 40.5178C164.243 40.6805 163.755 40.8433 163.43 41.006Z" fill="white"/>
</g>
<defs>
<clipPath id="clip0_102_279">
<rect width="174" height="55" fill="white"/>
</clipPath>
</defs>
</svg>
