<svg width="18" height="18" viewBox="0 0 18 18" fill="none" xmlns="http://www.w3.org/2000/svg">
<path d="M17 18C14.9 18 12.9 17.5 10.8 16.6C8.8 15.7 6.9 14.4 5.2 12.7C3.5 11 2.2 9.2 1.3 7.1C0.4 5 0 3.1 0 1.1C0 0.8 0.1 0.5 0.3 0.3C0.5 0.1 0.8 0 1.1 0H5.1C5.3 0 5.5 0.1 5.7 0.2C5.9 0.4 6 0.6 6.1 0.8L6.8 4.3C6.8 4.6 6.8 4.8 6.8 5C6.6 5.2 6.5 5.3 6.4 5.5L4 7.9C4.3 8.5 4.7 9.1 5.2 9.7C5.7 10.3 6.2 10.8 6.7 11.4C7.2 11.9 7.8 12.4 8.3 12.8C8.8 13.2 9.5 13.6 10.1 14L12.4 11.7C12.6 11.5 12.7 11.4 13 11.4C13.2 11.3 13.5 11.3 13.7 11.3L17.2 12C17.4 12.1 17.6 12.2 17.8 12.4C18 12.6 18 12.8 18 13V17C18 17.3 17.9 17.5 17.7 17.8C17.5 17.9 17.3 18 17 18Z" fill="#E8EAED"/>
</svg>
